<svg width="50" height="50" viewBox="0 0 50 50" fill="none" xmlns="http://www.w3.org/2000/svg">
<g clip-path="url(#clip0_329_6028)">
<path d="M24.9233 15.9169C24.9233 16.0034 25.0098 16.0034 25.0963 16.0034C25.1829 16.0034 25.1829 15.9169 25.1829 15.9169C25.1829 15.9169 26.5675 12.0242 26.8271 10.9861C26.8271 10.4671 26.8271 9.94804 26.7406 9.42901C26.4809 6.31484 25.8752 3.20067 25.1829 0.173009C25.1829 0 25.0963 0 25.0963 0C25.0963 0 25.0098 0 25.0098 0.0865047C24.2309 3.11417 23.7117 6.22834 23.4521 9.34251C23.3656 9.86153 23.3656 10.3806 23.3656 10.8996C23.5386 12.0242 24.9233 15.9169 24.9233 15.9169Z" fill="#2F3953"/>
<path d="M21.635 21.6256C19.7311 23.5287 19.7311 26.6428 21.635 28.5459C23.5388 30.449 26.6542 30.449 28.5581 28.5459C30.4619 26.6428 30.4619 23.5287 28.5581 21.6256C26.6542 19.7225 23.5388 19.7225 21.635 21.6256Z" fill="#2F3953"/>
<path d="M22.2404 12.6302L21.8077 11.2461C20.3366 11.5921 18.9519 12.1976 17.6539 12.9762L18.2596 14.1873C19.4712 13.4952 20.7692 12.8897 22.2404 12.6302Z" fill="#2F3953"/>
<path d="M32.5389 13.0621C31.2408 12.2836 29.8562 11.678 28.385 11.332L27.9523 12.6296C29.3369 12.9756 30.7215 13.4946 31.9331 14.2732L32.5389 13.0621Z" fill="#2F3953"/>
<path d="M17.6539 37.1105C18.9519 37.889 20.3366 38.4946 21.8077 38.8406L22.2404 37.543C20.8558 37.197 19.4712 36.678 18.2596 35.8994L17.6539 37.1105Z" fill="#2F3953"/>
<path d="M27.9523 37.543L28.385 38.8406C29.8562 38.4946 31.2408 37.889 32.5389 37.1105L31.9331 35.8994C30.635 36.678 29.3369 37.197 27.9523 37.543Z" fill="#2F3953"/>
<path d="M12.9808 32.5252L14.1923 31.9196C13.4135 30.7086 12.8942 29.411 12.5481 27.9404L11.25 28.373C11.5961 29.8435 12.2019 31.2276 12.9808 32.5252Z" fill="#2F3953"/>
<path d="M11.25 21.7997L12.5481 22.2322C12.8942 20.8481 13.4135 19.4641 14.1923 18.253L12.9808 17.6475C12.2019 18.945 11.5961 20.3291 11.25 21.7997Z" fill="#2F3953"/>
<path d="M38.8562 28.373L37.5581 27.9404C37.212 29.3245 36.6928 30.7086 35.9139 31.9196L37.1254 32.5252C37.9043 31.2276 38.5101 29.8435 38.8562 28.373Z" fill="#2F3953"/>
<path d="M35.9139 18.253C36.6928 19.4641 37.212 20.8481 37.5581 22.2322L38.8562 21.7997C38.5101 20.3291 37.9043 18.945 37.1254 17.6475L35.9139 18.253Z" fill="#2F3953"/>
<path d="M25.1825 34.1695C25.1825 34.083 25.0959 34.083 25.0094 34.083C24.9228 34.083 24.9228 34.1695 24.9228 34.1695C24.9228 34.1695 23.5382 38.0622 23.2786 39.1003C23.2786 39.6193 23.2786 40.1383 23.3651 40.6574C23.6248 43.7715 24.2305 46.8857 24.9228 49.9134C24.9228 49.9999 25.0094 49.9999 25.0094 49.9999C25.0094 49.9999 25.0959 49.9999 25.0959 49.9134C25.8748 46.8857 26.394 43.7715 26.6536 40.6574C26.7401 40.1383 26.7401 39.6193 26.7401 39.1003C26.5671 38.0622 25.1825 34.1695 25.1825 34.1695Z" fill="#2F3953"/>
<path d="M10.9904 26.8162C12.0288 26.5567 15.9231 25.1726 15.9231 25.1726C16.0096 25.1726 16.0096 25.0861 16.0096 24.9996C16.0096 24.9131 15.9231 24.9131 15.9231 24.9131C15.9231 24.9131 12.0288 23.529 10.9904 23.2695C10.4712 23.2695 9.95192 23.2695 9.43269 23.356C6.31731 23.6156 3.20192 24.2211 0.173077 24.9131C0 24.9131 0 24.9996 0 25.0861C0 25.1726 0 25.1726 0.0865384 25.1726C3.11538 25.9512 6.23077 26.4702 9.34615 26.7297C9.95192 26.8162 10.4712 26.8162 10.9904 26.8162Z" fill="#2F3953"/>
<path d="M50.0193 24.9131C46.9905 24.1346 43.8751 23.6156 40.7597 23.356C40.2405 23.2695 39.7212 23.2695 39.202 23.2695C38.1635 23.529 34.2693 24.9131 34.2693 24.9131C34.1828 24.9131 34.1828 24.9996 34.1828 25.0861C34.1828 25.1726 34.2693 25.1726 34.2693 25.1726C34.2693 25.1726 38.1635 26.5567 39.202 26.8162C39.7212 26.8162 40.2405 26.8162 40.7597 26.7297C43.8751 26.4702 46.9905 25.8647 50.0193 25.1726C50.1058 25.1726 50.1058 25.0861 50.1058 25.0861C50.1058 25.0861 50.1058 24.9131 50.0193 24.9131Z" fill="#2F3953"/>
<path d="M12.8078 15.225C13.5001 16.09 13.7597 16.3496 13.7597 16.3496C14.6251 16.8686 18.6059 18.7717 18.6059 18.7717C18.6924 18.7717 18.6924 18.7717 18.779 18.7717C18.779 18.7717 18.8655 18.6852 18.779 18.5987C18.779 18.5987 16.9616 14.6195 16.3559 13.7544C16.3559 13.7544 16.0963 13.4949 15.2309 12.8029C13.327 11.2458 11.3366 9.94821 9.08665 8.91016C9.00011 8.91016 9.00011 8.91016 8.91357 8.91016C8.82703 8.91016 8.82703 8.99666 8.91357 9.08317C9.95203 11.2458 11.2501 13.3219 12.8078 15.225Z" fill="#2F3953"/>
<path d="M37.3843 34.9481C36.692 34.083 36.4324 33.8235 36.4324 33.8235C35.567 33.3045 31.5862 31.4014 31.5862 31.4014C31.4997 31.4014 31.4131 31.4014 31.4131 31.4014C31.4131 31.4879 31.4131 31.4879 31.4131 31.5744C31.4131 31.5744 33.2304 35.5536 33.8362 36.4186C33.8362 36.4186 34.0958 36.6782 34.9612 37.3702C36.8651 38.9273 38.8554 40.2248 41.1054 41.2629C41.192 41.2629 41.192 41.2629 41.2785 41.2629C41.3651 41.2629 41.3651 41.1764 41.2785 41.0899C40.2401 38.8408 38.942 36.7647 37.3843 34.9481Z" fill="#2F3953"/>
<path d="M18.6921 31.4877C18.6921 31.4877 18.6055 31.4012 18.519 31.4877C18.519 31.4877 14.5382 33.3043 13.6728 33.9098C13.6728 33.9098 13.4132 34.1693 12.7209 35.0344C11.1632 36.9375 9.86515 38.9271 8.82669 41.1762C8.82669 41.2627 8.82669 41.2627 8.82669 41.3492C8.82669 41.4357 8.91323 41.4357 8.99976 41.3492C11.1632 40.3111 13.2401 39.0136 15.144 37.4565C16.0094 36.7644 16.269 36.5049 16.269 36.5049C16.7882 35.6399 18.6921 31.6607 18.6921 31.6607C18.6921 31.5742 18.6921 31.4877 18.6921 31.4877Z" fill="#2F3953"/>
<path d="M31.5005 18.6852C31.5005 18.6852 31.587 18.7717 31.6736 18.6852C31.6736 18.6852 35.6544 16.8686 36.5197 16.2631C36.5197 16.2631 36.7794 16.0036 37.4717 15.1385C39.0294 13.2354 40.3274 11.2458 41.3659 8.99668C41.3659 8.91017 41.3659 8.91017 41.3659 8.82367C41.3659 8.73716 41.2794 8.73716 41.1928 8.82367C39.0294 9.86172 36.9524 11.1593 35.0486 12.7164C34.1832 13.4084 33.9236 13.6679 33.9236 13.6679C33.4044 14.533 31.5005 18.5122 31.5005 18.5122C31.414 18.5122 31.414 18.5987 31.5005 18.6852Z" fill="#2F3953"/>
</g>
<defs>
<clipPath id="clip0_329_6028">
<rect width="50" height="50" fill="white"/>
</clipPath>
</defs>
</svg>
