<svg width="24" height="16" viewBox="0 0 24 16" fill="none" xmlns="http://www.w3.org/2000/svg">
<path d="M23.5219 1.59265H19.4479V1.42106C19.4479 1.29424 19.3976 1.17261 19.3079 1.08293C19.2182 0.993252 19.0966 0.942871 18.9698 0.942871C18.907 0.942871 18.8448 0.95524 18.7868 0.979271C18.7287 1.0033 18.676 1.03853 18.6316 1.08293C18.5872 1.12733 18.552 1.18005 18.528 1.23806C18.5039 1.29608 18.4916 1.35826 18.4916 1.42106V1.59265H14.4155C14.2887 1.59265 14.167 1.64303 14.0774 1.73271C13.9877 1.82238 13.9373 1.94401 13.9373 2.07084C13.9373 2.19766 13.9877 2.31929 14.0774 2.40897C14.167 2.49864 14.2887 2.54902 14.4155 2.54902H18.491V3.49687C18.2443 3.57622 18.0291 3.73175 17.8764 3.9411C17.7236 4.15046 17.6412 4.40286 17.641 4.66201V5.2411H16.7563V5.18795C16.7555 4.58679 16.2683 4.0997 15.6672 4.09879H8.33487C7.73371 4.09965 7.24662 4.58679 7.2457 5.18795V5.2411H6.3611V4.66201C6.36083 4.40286 6.2784 4.15047 6.12566 3.94111C5.97292 3.73176 5.75773 3.57622 5.51102 3.49687V2.54902H9.58657C9.71339 2.54902 9.83502 2.49864 9.92469 2.40897C10.0144 2.31929 10.0648 2.19766 10.0648 2.07084C10.0648 1.94401 10.0144 1.82238 9.92469 1.73271C9.83502 1.64303 9.71339 1.59265 9.58657 1.59265H5.50994V1.42106C5.50994 1.15698 5.29589 0.942871 5.03176 0.942871C4.76762 0.942871 4.55357 1.15693 4.55357 1.42106V1.59265H0.478187C0.351364 1.59265 0.229735 1.64303 0.140058 1.73271C0.0503803 1.82238 0 1.94401 0 2.07084C0 2.19766 0.0503803 2.31929 0.140058 2.40897C0.229735 2.49864 0.351364 2.54902 0.478187 2.54902H4.55373V3.49687C4.30702 3.57622 4.09183 3.73175 3.93908 3.9411C3.78634 4.15046 3.70391 4.40286 3.70366 4.66201V6.77813C3.70366 7.453 4.25075 8.00009 4.92562 8.00009H5.13811C5.81298 8.00009 6.36007 7.453 6.36007 6.77813V6.19904H7.24414V6.33081C7.24738 6.93095 7.73474 7.41572 8.33487 7.41572H9.12753V7.50761C9.12803 7.56692 9.13335 7.62609 9.14345 7.68454C8.26791 8.26099 6.34092 10.0435 6.34092 14.5764C6.34092 14.8405 6.55497 15.0546 6.8191 15.0546C7.08323 15.0546 7.29729 14.8406 7.29729 14.5764C7.29729 11.92 8.01824 10.3601 8.6255 9.52121C9.0378 8.94956 9.45269 8.62597 9.70134 8.46555C9.86033 8.55188 10.0384 8.59699 10.2193 8.59678H11.5226V9.36343H9.56002C9.43319 9.36343 9.31157 9.41381 9.22189 9.50349C9.13221 9.59317 9.08183 9.71479 9.08183 9.84162V12.0826C9.08183 12.2094 9.13221 12.3311 9.22189 12.4207C9.31157 12.5104 9.43319 12.5608 9.56002 12.5608H14.441C14.5038 12.5608 14.566 12.5484 14.624 12.5244C14.682 12.5004 14.7347 12.4651 14.7791 12.4207C14.8235 12.3763 14.8588 12.3236 14.8828 12.2656C14.9068 12.2076 14.9192 12.1454 14.9192 12.0826V9.84426C14.9192 9.78146 14.9068 9.71928 14.8828 9.66127C14.8588 9.60325 14.8235 9.55053 14.7791 9.50613C14.7347 9.46173 14.682 9.42651 14.624 9.40247C14.566 9.37844 14.5038 9.36607 14.441 9.36607H12.4789V8.59942H13.7849C13.9658 8.59964 14.1439 8.55452 14.3029 8.46819C14.551 8.62759 14.9665 8.95221 15.3787 9.52385C15.9839 10.3628 16.7069 11.921 16.7069 14.5791C16.7069 14.7059 16.7573 14.8275 16.847 14.9172C16.9367 15.0069 17.0583 15.0573 17.1851 15.0573C17.3119 15.0573 17.4336 15.0069 17.5232 14.9172C17.6129 14.8275 17.6633 14.7059 17.6633 14.5791C17.6633 10.0461 15.7363 8.26363 14.8608 7.68719C14.8709 7.62875 14.8762 7.56955 14.8767 7.51025V7.41566H15.6667C16.2679 7.4148 16.7549 6.92766 16.7559 6.3265V6.19473H17.6399V6.77808C17.6399 7.45295 18.187 8.00004 18.8619 8.00004H19.0744C19.7493 8.00004 20.2963 7.45295 20.2963 6.77808V4.66352C20.2961 4.40437 20.2137 4.15198 20.0609 3.94262C19.9082 3.73327 19.693 3.57774 19.4463 3.49838V2.54897H23.5218C23.6478 2.54764 23.7681 2.49668 23.8567 2.40716C23.9453 2.31763 23.9949 2.19678 23.9949 2.07084C23.995 1.94489 23.9453 1.82403 23.8567 1.7345C23.7681 1.64497 23.6478 1.59399 23.5219 1.59265ZM12.6431 10.9646C12.6431 11.3193 12.3555 11.6069 12.0008 11.6069C11.6461 11.6069 11.3585 11.3193 11.3585 10.9646C11.3585 10.6099 11.6461 10.3223 12.0008 10.3223C12.3554 10.3226 12.6428 10.61 12.6431 10.9646Z" fill="#A0A3A6"/>
</svg>
