<svg width="14" height="16" viewBox="0 0 14 16" fill="none" xmlns="http://www.w3.org/2000/svg">
<path fill-rule="evenodd" clip-rule="evenodd" d="M1.99951 0C0.894942 0 -0.000488281 0.895431 -0.000488281 2V14C-0.000488281 15.1046 0.894942 16 1.99951 16H11.9995C13.1041 16 13.9995 15.1046 13.9995 14V4.41422C13.9995 4.149 13.8942 3.89464 13.7066 3.70711L10.2924 0.292892C10.1049 0.105356 9.85052 0 9.5853 0H1.99951ZM4 9.16669C4.55228 9.16669 5 9.6144 5 10.1667V12.1667C5 12.719 4.55228 13.1667 4 13.1667C3.44772 13.1667 3 12.719 3 12.1667V10.1667C3 9.6144 3.44772 9.16669 4 9.16669ZM7.99984 9.16667C7.99984 8.61438 7.55212 8.16667 6.99984 8.16667C6.44755 8.16667 5.99984 8.61438 5.99984 9.16667V12.1667C5.99984 12.719 6.44755 13.1667 6.99984 13.1667C7.55212 13.1667 7.99984 12.719 7.99984 12.1667V9.16667ZM10 6.16669C10.5523 6.16669 11 6.6144 11 7.16669V12.1667C11 12.719 10.5523 13.1667 10 13.1667C9.44772 13.1667 9 12.719 9 12.1667V7.16669C9 6.6144 9.44772 6.16669 10 6.16669Z" fill="#9CA8B4"/>
</svg>
