<svg width="48" height="40" viewBox="0 0 48 40" fill="none" xmlns="http://www.w3.org/2000/svg">
<path d="M18.6853 24.6387L10.7784 28.5606L11.8312 31.7369C11.8312 31.7369 12.8942 30.8037 19.6939 28.5606L18.6853 24.6387Z" fill="#6E7882"/>
<path d="M20.5076 28.5605H19.6939C19.5074 28.5605 19.3385 28.4478 19.2642 28.2734L18.1668 25.6983C18.0901 25.5182 18.1208 25.3092 18.2464 25.16L20.4467 22.5449L20.5076 28.5605Z" fill="#BBC4CC"/>
<path d="M18.7578 25.8356C18.9112 25.8356 19.0355 25.709 19.0355 25.5528C19.0355 25.3966 18.9112 25.27 18.7578 25.27C18.6044 25.27 18.48 25.3966 18.48 25.5528C18.48 25.709 18.6044 25.8356 18.7578 25.8356Z" fill="#636D78"/>
<path d="M19.6792 27.9797C19.8326 27.9797 19.957 27.8531 19.957 27.6969C19.957 27.5407 19.8326 27.4141 19.6792 27.4141C19.5258 27.4141 19.4014 27.5407 19.4014 27.6969C19.4014 27.8531 19.5258 27.9797 19.6792 27.9797Z" fill="#636D78"/>
<path d="M9.78375 33.1054C11.086 33.1054 12.1417 32.0305 12.1417 30.7045C12.1417 29.3786 11.086 28.3037 9.78375 28.3037C8.48149 28.3037 7.4258 29.3786 7.4258 30.7045C7.4258 32.0305 8.48149 33.1054 9.78375 33.1054Z" fill="#BBC4CC"/>
<path d="M9.41118 29.7935C9.41118 29.7935 9.27688 28.898 10.0957 27.697C10.9147 26.4958 12.7669 24.1931 14.5412 22.8431C14.5412 22.8431 14.9829 22.5401 15.4771 22.7636C15.9157 22.9622 15.687 23.5276 15.4771 23.9151C15.2625 24.3115 11.5271 30.5458 10.7529 30.7048L9.41118 29.7935Z" fill="#636D78"/>
<path d="M10.8221 30.9626C10.8221 30.9626 11.6397 31.3195 12.2087 32.6622C12.7776 34.0047 13.719 36.8229 13.9071 39.0699C13.9071 39.0699 13.9263 39.6119 13.4788 39.9208C13.0814 40.1952 12.7309 39.6987 12.5185 39.3125C12.3015 38.9175 9.07654 32.3944 9.35318 31.6412L10.8221 30.9626Z" fill="#636D78"/>
<path d="M9.11535 31.5282C9.11535 31.5282 8.45742 32.1378 7.02154 32.1081C5.58588 32.0786 2.67686 31.7823 0.590419 31.025C0.590419 31.025 0.0980332 30.8181 0.00745409 30.2754C-0.0730855 29.7936 0.516129 29.6745 0.949391 29.638C1.39247 29.6005 8.5596 29.3172 9.11802 29.8858L9.11535 31.5282Z" fill="#636D78"/>
<path d="M10.8446 30.7046C10.8446 30.1081 10.3696 29.6245 9.78353 29.6245C9.19767 29.6245 8.72269 30.1081 8.72269 30.7046C8.72269 31.3012 9.19767 31.7848 9.78353 31.7848C10.3696 31.7848 10.8446 31.3012 10.8446 30.7046Z" fill="#EDF0F2"/>
<path d="M10.534 30.7046C10.534 30.2828 10.1983 29.9407 9.78375 29.9407C9.36945 29.9407 9.03346 30.2825 9.03346 30.7046C9.03346 31.1264 9.36923 31.4685 9.78375 31.4685C10.1981 31.4683 10.534 31.1264 10.534 30.7046Z" stroke="#BBC4CC" stroke-width="0.574" stroke-miterlimit="10"/>
<path d="M29.315 24.6387L37.2219 28.5606L36.1691 31.7369C36.1691 31.7369 35.106 30.8037 28.3061 28.5606L29.315 24.6387Z" fill="#6E7882"/>
<path d="M27.4924 28.5605H28.3061C28.4926 28.5605 28.6615 28.4478 28.7358 28.2734L29.8332 25.6983C29.91 25.5182 29.8792 25.3092 29.7536 25.16L27.5533 22.5449L27.4924 28.5605Z" fill="#BBC4CC"/>
<path d="M29.2422 25.8356C29.3956 25.8356 29.52 25.709 29.52 25.5528C29.52 25.3966 29.3956 25.27 29.2422 25.27C29.0888 25.27 28.9645 25.3966 28.9645 25.5528C28.9645 25.709 29.0888 25.8356 29.2422 25.8356Z" fill="#636D78"/>
<path d="M28.321 27.9797C28.4744 27.9797 28.5988 27.8531 28.5988 27.6969C28.5988 27.5407 28.4744 27.4141 28.321 27.4141C28.1676 27.4141 28.0433 27.5407 28.0433 27.6969C28.0433 27.8531 28.1676 27.9797 28.321 27.9797Z" fill="#636D78"/>
<path d="M38.2162 33.1054C39.5185 33.1054 40.5742 32.0305 40.5742 30.7045C40.5742 29.3786 39.5185 28.3037 38.2162 28.3037C36.914 28.3037 35.8583 29.3786 35.8583 30.7045C35.8583 32.0305 36.914 33.1054 38.2162 33.1054Z" fill="#BBC4CC"/>
<path d="M38.5888 29.7935C38.5888 29.7935 38.7231 28.898 37.9043 27.697C37.0853 26.4958 35.2332 24.1931 33.4588 22.8431C33.4588 22.8431 33.0171 22.5401 32.5229 22.7636C32.0843 22.9622 32.313 23.5276 32.5229 23.9151C32.7375 24.3115 36.4729 30.5458 37.2471 30.7048L38.5888 29.7935Z" fill="#636D78"/>
<path d="M37.1782 30.9626C37.1782 30.9626 36.3605 31.3195 35.7918 32.6622C35.2229 34.0047 34.2814 36.8229 34.0933 39.0699C34.0933 39.0699 34.0741 39.6119 34.5217 39.9208C34.919 40.1952 35.2695 39.6987 35.4819 39.3125C35.699 38.9175 38.9239 32.3944 38.6473 31.6412L37.1782 30.9626Z" fill="#636D78"/>
<path d="M38.8846 31.5282C38.8846 31.5282 39.5426 32.1378 40.9785 32.1081C42.4141 32.0786 45.3231 31.7823 47.4096 31.025C47.4096 31.025 47.902 30.8181 47.9925 30.2754C48.0731 29.7936 47.4839 29.6745 47.0506 29.638C46.6075 29.6005 39.4404 29.3172 38.882 29.8858L38.8846 31.5282Z" fill="#636D78"/>
<path d="M38.2162 31.7848C38.8021 31.7848 39.2771 31.3012 39.2771 30.7046C39.2771 30.1081 38.8021 29.6245 38.2162 29.6245C37.6303 29.6245 37.1554 30.1081 37.1554 30.7046C37.1554 31.3012 37.6303 31.7848 38.2162 31.7848Z" fill="#EDF0F2"/>
<path d="M37.4662 30.7046C37.4662 30.2828 37.8019 29.9407 38.2165 29.9407C38.6308 29.9407 38.9668 30.2825 38.9668 30.7046C38.9668 31.1264 38.6308 31.4685 38.2165 31.4685C37.8019 31.4683 37.4662 31.1264 37.4662 30.7046Z" stroke="#BBC4CC" stroke-width="0.574" stroke-miterlimit="10"/>
<path d="M18.6853 15.3614L10.7784 11.4395L11.8312 8.26318C11.8312 8.26318 12.8942 9.19635 19.6939 11.4395L18.6853 15.3614Z" fill="#6E7882"/>
<path d="M20.5076 11.4395H19.6939C19.5074 11.4395 19.3385 11.5521 19.2642 11.7266L18.1668 14.3016C18.0901 14.4818 18.1208 14.6908 18.2464 14.84L20.4467 17.455L20.5076 11.4395Z" fill="#BBC4CC"/>
<path d="M18.7578 14.7299C18.9112 14.7299 19.0355 14.6033 19.0355 14.4471C19.0355 14.2909 18.9112 14.1643 18.7578 14.1643C18.6044 14.1643 18.48 14.2909 18.48 14.4471C18.48 14.6033 18.6044 14.7299 18.7578 14.7299Z" fill="#636D78"/>
<path d="M19.6792 12.5859C19.8326 12.5859 19.957 12.4593 19.957 12.3031C19.957 12.1469 19.8326 12.0203 19.6792 12.0203C19.5258 12.0203 19.4014 12.1469 19.4014 12.3031C19.4014 12.4593 19.5258 12.5859 19.6792 12.5859Z" fill="#636D78"/>
<path d="M9.78375 11.6962C11.086 11.6962 12.1417 10.6213 12.1417 9.29536C12.1417 7.96942 11.086 6.89453 9.78375 6.89453C8.48149 6.89453 7.4258 7.96942 7.4258 9.29536C7.4258 10.6213 8.48149 11.6962 9.78375 11.6962Z" fill="#BBC4CC"/>
<path d="M9.41118 10.2068C9.41118 10.2068 9.27688 11.1022 10.0957 12.3032C10.9147 13.5044 12.7669 15.8074 14.5412 17.1571C14.5412 17.1571 14.9829 17.4602 15.4771 17.2366C15.9157 17.0381 15.687 16.4727 15.4771 16.0852C15.2625 15.6888 11.5271 9.45444 10.7529 9.29565L9.41118 10.2068Z" fill="#636D78"/>
<path d="M10.8221 9.03737C10.8221 9.03737 11.6397 8.68051 12.2087 7.33778C12.7776 5.99528 13.719 3.17716 13.9071 0.930113C13.9071 0.930113 13.9263 0.388114 13.4788 0.0791799C13.0814 -0.195227 12.7309 0.301342 12.5185 0.68751C12.3015 1.08254 9.07654 7.6056 9.35318 8.35885L10.8221 9.03737Z" fill="#636D78"/>
<path d="M9.11535 8.4721C9.11535 8.4721 8.45742 7.86241 7.02154 7.89217C5.58588 7.9217 2.67686 8.21791 0.590419 8.97526C0.590419 8.97526 0.0980332 9.1822 0.00745409 9.72488C-0.0730855 10.2067 0.516129 10.3257 0.949391 10.3623C1.39247 10.3998 8.5596 10.683 9.11802 10.1145L9.11535 8.4721Z" fill="#636D78"/>
<path d="M10.8446 9.29547C10.8446 9.89198 10.3696 10.3758 9.78353 10.3758C9.19767 10.3758 8.72269 9.89221 8.72269 9.29547C8.72269 8.69872 9.19767 8.21533 9.78353 8.21533C10.3696 8.21533 10.8446 8.69895 10.8446 9.29547Z" fill="#EDF0F2"/>
<path d="M10.534 9.29543C10.534 9.71726 10.1983 10.0594 9.78375 10.0594C9.36945 10.0594 9.03346 9.71749 9.03346 9.29543C9.03346 8.8736 9.36923 8.53149 9.78375 8.53149C10.1981 8.53172 10.534 8.8736 10.534 9.29543Z" stroke="#BBC4CC" stroke-width="0.574" stroke-miterlimit="10"/>
<path d="M29.3149 15.3614L37.2219 11.4395L36.1691 8.26318C36.1691 8.26318 35.106 9.19635 28.3061 11.4395L29.3149 15.3614Z" fill="#6E7882"/>
<path d="M27.4924 11.4395H28.3061C28.4926 11.4395 28.6615 11.5521 28.7358 11.7266L29.8332 14.3016C29.91 14.4818 29.8792 14.6908 29.7536 14.84L27.5533 17.455L27.4924 11.4395Z" fill="#BBC4CC"/>
<path d="M29.2422 14.7299C29.3956 14.7299 29.52 14.6033 29.52 14.4471C29.52 14.2909 29.3956 14.1643 29.2422 14.1643C29.0888 14.1643 28.9645 14.2909 28.9645 14.4471C28.9645 14.6033 29.0888 14.7299 29.2422 14.7299Z" fill="#636D78"/>
<path d="M28.321 12.5859C28.4744 12.5859 28.5988 12.4593 28.5988 12.3031C28.5988 12.1469 28.4744 12.0203 28.321 12.0203C28.1676 12.0203 28.0433 12.1469 28.0433 12.3031C28.0433 12.4593 28.1676 12.5859 28.321 12.5859Z" fill="#636D78"/>
<path d="M38.2162 11.6962C39.5185 11.6962 40.5742 10.6213 40.5742 9.29536C40.5742 7.96942 39.5185 6.89453 38.2162 6.89453C36.914 6.89453 35.8583 7.96942 35.8583 9.29536C35.8583 10.6213 36.914 11.6962 38.2162 11.6962Z" fill="#BBC4CC"/>
<path d="M38.5888 10.2068C38.5888 10.2068 38.7231 11.1022 37.9043 12.3032C37.0853 13.5044 35.2332 15.8074 33.4588 17.1571C33.4588 17.1571 33.0171 17.4602 32.5229 17.2366C32.0843 17.0381 32.313 16.4727 32.5229 16.0852C32.7375 15.6888 36.4729 9.45444 37.2471 9.29565L38.5888 10.2068Z" fill="#636D78"/>
<path d="M37.1782 9.03737C37.1782 9.03737 36.3605 8.68051 35.7918 7.33778C35.2229 5.99528 34.2814 3.17716 34.0933 0.930113C34.0933 0.930113 34.0741 0.388114 34.5217 0.0791799C34.919 -0.195227 35.2695 0.301342 35.4819 0.68751C35.699 1.08254 38.9239 7.6056 38.6473 8.35885L37.1782 9.03737Z" fill="#636D78"/>
<path d="M38.8846 8.4721C38.8846 8.4721 39.5426 7.86241 40.9785 7.89217C42.4141 7.9217 45.3231 8.21791 47.4096 8.97526C47.4096 8.97526 47.902 9.1822 47.9925 9.72488C48.0731 10.2067 47.4839 10.3257 47.0506 10.3623C46.6075 10.3998 39.4404 10.683 38.882 10.1145L38.8846 8.4721Z" fill="#636D78"/>
<path d="M38.2162 10.3756C38.8021 10.3756 39.2771 9.89201 39.2771 9.29547C39.2771 8.69893 38.8021 8.21533 38.2162 8.21533C37.6303 8.21533 37.1554 8.69893 37.1554 9.29547C37.1554 9.89201 37.6303 10.3756 38.2162 10.3756Z" fill="#EDF0F2"/>
<path d="M37.4662 9.29543C37.4662 9.71726 37.8019 10.0594 38.2165 10.0594C38.6308 10.0594 38.9668 9.71749 38.9668 9.29543C38.9668 8.8736 38.6308 8.53149 38.2165 8.53149C37.8019 8.53172 37.4662 8.8736 37.4662 9.29543Z" stroke="#BBC4CC" stroke-width="0.574" stroke-miterlimit="10"/>
<path d="M21.5802 32.5742L22.6915 31.2008H25.2264L26.397 32.5949L25.1483 29.136H22.6527L21.5802 32.5742Z" fill="#3B4657"/>
<path d="M24.8621 29.136H23.1241V31.9948H24.8621V29.136Z" fill="#636D78"/>
<path d="M25.1873 31.9949H22.8086V32.595H25.1873V31.9949Z" fill="#7E8B96"/>
<path d="M26.397 32.5949C26.4722 32.803 26.7067 32.9129 26.9039 32.8189C27.2222 32.6669 27.4442 32.3371 27.4442 31.9568L27.6783 8.84467C27.6783 8.32152 27.2579 7.89355 26.7441 7.89355H21.242C20.7282 7.89355 20.3079 8.32152 20.3079 8.84467L20.5419 31.9568C20.5419 32.3321 20.7583 32.6585 21.0702 32.813C21.2715 32.9125 21.5126 32.7912 21.5802 32.574L22.6525 29.136H25.1483L26.397 32.5949Z" fill="#6E7882"/>
<path d="M26.3553 22.5449H21.6307C21.3696 22.5449 21.1559 22.3273 21.1559 22.0615V8.79394C21.1559 8.52816 21.3696 8.31055 21.6307 8.31055H26.3553C26.6163 8.31055 26.83 8.52793 26.83 8.79394V22.0615C26.83 22.3273 26.6165 22.5449 26.3553 22.5449Z" stroke="#3B4657" stroke-width="0.7866" stroke-miterlimit="10" stroke-linecap="round" stroke-linejoin="round"/>
</svg>
