<svg width="36" height="24" viewBox="0 0 36 24" fill="none" xmlns="http://www.w3.org/2000/svg">
<path d="M18.0017 15.9683C19.0537 15.9683 20.0627 15.5504 20.8066 14.8065C21.5505 14.0626 21.9684 13.0537 21.9684 12.0017C21.9684 10.9496 21.5505 9.94071 20.8066 9.19681C20.0627 8.45292 19.0537 8.03501 18.0017 8.03501C16.9497 8.03501 15.9407 8.45292 15.1969 9.19681C14.453 9.94071 14.035 10.9496 14.035 12.0017C14.035 13.0537 14.453 14.0626 15.1969 14.8065C15.9407 15.5504 16.9497 15.9683 18.0017 15.9683ZM31.3334 23.25C31.1012 23.25 30.8737 23.1854 30.6762 23.0633C30.4787 22.9413 30.3192 22.7667 30.2153 22.559C30.1115 22.3514 30.0676 22.1189 30.0884 21.8877C30.1093 21.6565 30.1941 21.4357 30.3334 21.25C32.3435 18.586 33.4264 15.3373 33.4167 12C33.4167 8.63334 32.35 5.43334 30.3334 2.75C30.1345 2.48479 30.0491 2.15142 30.0959 1.82323C30.1428 1.49504 30.3182 1.19892 30.5834 1.00001C30.8486 0.801093 31.182 0.715684 31.5102 0.762568C31.8383 0.809452 32.1345 0.984789 32.3334 1.25001C34.6834 4.36667 35.9167 8.08334 35.9167 12C35.9167 15.9167 34.6834 19.6333 32.3334 22.75C32.0834 23.0833 31.7167 23.25 31.3334 23.25ZM4.66671 23.25C4.28337 23.25 3.91671 23.0833 3.66671 22.75C1.31671 19.6333 0.083374 15.9167 0.083374 12C0.083374 8.08334 1.31671 4.36667 3.66671 1.25001C3.86562 0.984789 4.16174 0.809452 4.48993 0.762568C4.81812 0.715684 5.15149 0.801093 5.41671 1.00001C5.68192 1.19892 5.85726 1.49504 5.90414 1.82323C5.95103 2.15142 5.86562 2.48479 5.66671 2.75C3.65657 5.414 2.57366 8.66273 2.58337 12C2.58337 15.3667 3.65004 18.5667 5.66671 21.25C5.80599 21.4357 5.89081 21.6565 5.91166 21.8877C5.9325 22.1189 5.88856 22.3514 5.78474 22.559C5.68093 22.7667 5.52134 22.9413 5.32387 23.0633C5.1264 23.1854 4.89885 23.25 4.66671 23.25ZM26.0017 19.2483C25.7696 19.2483 25.542 19.1837 25.3445 19.0617C25.1471 18.9396 24.9875 18.765 24.8837 18.5574C24.7799 18.3497 24.7359 18.1173 24.7568 17.8861C24.7776 17.6549 24.8624 17.434 25.0017 17.2483C26.1517 15.7317 26.7517 13.915 26.7517 11.9983C26.7517 10.0817 26.1517 8.26501 25.0017 6.74834C24.8028 6.48312 24.7174 6.14975 24.7643 5.82156C24.8112 5.49337 24.9865 5.19725 25.2517 4.99834C25.5169 4.79943 25.8503 4.71402 26.1785 4.7609C26.5067 4.80779 26.8028 4.98312 27.0017 5.24834C28.4684 7.215 29.2517 9.54834 29.2517 11.9983C29.2517 14.4483 28.4684 16.7983 27.0017 18.7483C26.7517 19.0817 26.385 19.2483 26.0017 19.2483ZM10 19.2483C9.61671 19.2483 9.25004 19.0817 9.00004 18.7483C7.53337 16.7983 6.75004 14.4483 6.75004 11.9983C6.75004 9.54834 7.53337 7.19834 9.00004 5.24834C9.19895 4.98312 9.49508 4.80779 9.82326 4.7609C10.1515 4.71402 10.4848 4.79943 10.75 4.99834C11.0153 5.19725 11.1906 5.49337 11.2375 5.82156C11.2844 6.14975 11.199 6.48312 11 6.74834C9.85004 8.26501 9.25004 10.0817 9.25004 11.9983C9.25004 13.915 9.85004 15.7317 11 17.2483C11.1393 17.434 11.2241 17.6549 11.245 17.8861C11.2658 18.1173 11.2219 18.3497 11.1181 18.5574C11.0143 18.765 10.8547 18.9396 10.6572 19.0617C10.4597 19.1837 10.2322 19.2483 10 19.2483Z" fill="white"/>
</svg>
