<svg width="48" height="44" viewBox="0 0 48 44" fill="none" xmlns="http://www.w3.org/2000/svg">
<path d="M18.6853 26.502L10.7783 30.7204L11.8311 34.137C11.8311 34.137 12.8942 33.1333 19.6939 30.7204L18.6853 26.502Z" fill="#E4E4E4"/>
<path d="M20.5076 30.7206H19.6939C19.5074 30.7206 19.3385 30.5994 19.2642 30.4117L18.1668 27.6419C18.0901 27.4481 18.1208 27.2234 18.2464 27.0628L20.4467 24.25L20.5076 30.7206Z" fill="#9F9F9F"/>
<path d="M18.7577 27.7896C18.9111 27.7896 19.0355 27.6534 19.0355 27.4854C19.0355 27.3173 18.9111 27.1812 18.7577 27.1812C18.6043 27.1812 18.48 27.3173 18.48 27.4854C18.48 27.6534 18.6043 27.7896 18.7577 27.7896Z" fill="#7EBAFB"/>
<path d="M19.6791 30.096C19.8325 30.096 19.9569 29.9598 19.9569 29.7918C19.9569 29.6238 19.8325 29.4875 19.6791 29.4875C19.5257 29.4875 19.4014 29.6238 19.4014 29.7918C19.4014 29.9598 19.5257 30.096 19.6791 30.096Z" fill="#7EBAFB"/>
<path d="M9.78374 35.6094C11.086 35.6094 12.1417 34.4532 12.1417 33.027C12.1417 31.6008 11.086 30.4446 9.78374 30.4446C8.48148 30.4446 7.42578 31.6008 7.42578 33.027C7.42578 34.4532 8.48148 35.6094 9.78374 35.6094Z" fill="#9F9F9F"/>
<path d="M9.41115 32.0469C9.41115 32.0469 9.27685 31.0838 10.0956 29.7919C10.9146 28.4999 12.7668 26.023 14.5411 24.5709C14.5411 24.5709 14.9829 24.245 15.4771 24.4854C15.9157 24.699 15.687 25.3071 15.4771 25.724C15.2624 26.1503 11.527 32.8562 10.7529 33.0272L9.41115 32.0469Z" fill="#7EBAFB"/>
<path d="M10.822 33.3044C10.822 33.3044 11.6397 33.6883 12.2086 35.1326C12.7775 36.5766 13.719 39.6079 13.9071 42.0249C13.9071 42.0249 13.9263 42.6078 13.4787 42.9401C13.0814 43.2353 12.7309 42.7012 12.5185 42.2858C12.3014 41.8609 9.07648 34.8445 9.35312 34.0343L10.822 33.3044Z" fill="#7EBAFB"/>
<path d="M9.11535 33.9126C9.11535 33.9126 8.45742 34.5684 7.02154 34.5364C5.58588 34.5046 2.67686 34.186 0.590419 33.3714C0.590419 33.3714 0.0980332 33.1488 0.00745409 32.5651C-0.0730855 32.0468 0.516129 31.9188 0.949391 31.8794C1.39247 31.8391 8.5596 31.5344 9.11802 32.146L9.11535 33.9126Z" fill="#7EBAFB"/>
<path d="M10.8446 33.0271C10.8446 32.3854 10.3696 31.8652 9.7835 31.8652C9.19764 31.8652 8.72266 32.3854 8.72266 33.0271C8.72266 33.6687 9.19764 34.1889 9.7835 34.1889C10.3696 34.1889 10.8446 33.6687 10.8446 33.0271Z" fill="#7EBAFB"/>
<path d="M10.534 33.027C10.534 32.5733 10.1983 32.2053 9.78374 32.2053C9.36944 32.2053 9.03345 32.5731 9.03345 33.027C9.03345 33.4808 9.36922 33.8487 9.78374 33.8487C10.198 33.8485 10.534 33.4808 10.534 33.027Z" stroke="#9F9F9F" stroke-width="0.574" stroke-miterlimit="10"/>
<path d="M29.3149 26.502L37.2218 30.7204L36.169 34.137C36.169 34.137 35.1059 33.1333 28.306 30.7204L29.3149 26.502Z" fill="#E4E4E4"/>
<path d="M27.4924 30.7206H28.3061C28.4926 30.7206 28.6615 30.5994 28.7358 30.4117L29.8332 27.6419C29.91 27.4481 29.8792 27.2234 29.7536 27.0628L27.5533 24.25L27.4924 30.7206Z" fill="#9F9F9F"/>
<path d="M29.2421 27.7896C29.3955 27.7896 29.5199 27.6534 29.5199 27.4854C29.5199 27.3173 29.3955 27.1812 29.2421 27.1812C29.0887 27.1812 28.9644 27.3173 28.9644 27.4854C28.9644 27.6534 29.0887 27.7896 29.2421 27.7896Z" fill="#7EBAFB"/>
<path d="M28.321 30.096C28.4744 30.096 28.5987 29.9598 28.5987 29.7918C28.5987 29.6238 28.4744 29.4875 28.321 29.4875C28.1676 29.4875 28.0432 29.6238 28.0432 29.7918C28.0432 29.9598 28.1676 30.096 28.321 30.096Z" fill="#7EBAFB"/>
<path d="M38.2162 35.6094C39.5185 35.6094 40.5742 34.4532 40.5742 33.027C40.5742 31.6008 39.5185 30.4446 38.2162 30.4446C36.914 30.4446 35.8583 31.6008 35.8583 33.027C35.8583 34.4532 36.914 35.6094 38.2162 35.6094Z" fill="#9F9F9F"/>
<path d="M38.5888 32.0469C38.5888 32.0469 38.7231 31.0838 37.9044 29.7919C37.0854 28.4999 35.2332 26.023 33.4588 24.5709C33.4588 24.5709 33.0171 24.245 32.5229 24.4854C32.0843 24.699 32.313 25.3071 32.5229 25.724C32.7376 26.1503 36.4729 32.8562 37.2471 33.0272L38.5888 32.0469Z" fill="#7EBAFB"/>
<path d="M37.1782 33.3044C37.1782 33.3044 36.3605 33.6883 35.7919 35.1326C35.2229 36.5766 34.2815 39.6079 34.0934 42.0249C34.0934 42.0249 34.0742 42.6078 34.5217 42.9401C34.9191 43.2353 35.2696 42.7012 35.482 42.2858C35.699 41.8609 38.924 34.8445 38.6473 34.0343L37.1782 33.3044Z" fill="#7EBAFB"/>
<path d="M38.8846 33.9126C38.8846 33.9126 39.5426 34.5684 40.9784 34.5364C42.4141 34.5046 45.3231 34.186 47.4096 33.3714C47.4096 33.3714 47.9019 33.1488 47.9925 32.5651C48.0731 32.0468 47.4839 31.9188 47.0506 31.8794C46.6075 31.8391 39.4404 31.5344 38.882 32.146L38.8846 33.9126Z" fill="#7EBAFB"/>
<path d="M38.2162 34.1889C38.8021 34.1889 39.2771 33.6687 39.2771 33.0271C39.2771 32.3854 38.8021 31.8652 38.2162 31.8652C37.6303 31.8652 37.1554 32.3854 37.1554 33.0271C37.1554 33.6687 37.6303 34.1889 38.2162 34.1889Z" fill="#7EBAFB"/>
<path d="M37.4662 33.027C37.4662 32.5733 37.802 32.2053 38.2165 32.2053C38.6308 32.2053 38.9668 32.5731 38.9668 33.027C38.9668 33.4808 38.6308 33.8487 38.2165 33.8487C37.802 33.8485 37.4662 33.4808 37.4662 33.027Z" stroke="#9F9F9F" stroke-width="0.574" stroke-miterlimit="10"/>
<path d="M18.6853 16.5233L10.7783 12.3048L11.8311 8.88818C11.8311 8.88818 12.8942 9.89192 19.6939 12.3048L18.6853 16.5233Z" fill="#E4E4E4"/>
<path d="M20.5076 12.3047H19.6939C19.5074 12.3047 19.3385 12.4259 19.2642 12.6135L18.1668 15.3833C18.0901 15.5771 18.1208 15.8019 18.2464 15.9624L20.4467 18.7752L20.5076 12.3047Z" fill="#9F9F9F"/>
<path d="M18.7577 15.8442C18.9111 15.8442 19.0355 15.708 19.0355 15.54C19.0355 15.372 18.9111 15.2358 18.7577 15.2358C18.6043 15.2358 18.48 15.372 18.48 15.54C18.48 15.708 18.6043 15.8442 18.7577 15.8442Z" fill="#7EBAFB"/>
<path d="M19.6791 13.5378C19.8325 13.5378 19.9569 13.4016 19.9569 13.2336C19.9569 13.0656 19.8325 12.9294 19.6791 12.9294C19.5257 12.9294 19.4014 13.0656 19.4014 13.2336C19.4014 13.4016 19.5257 13.5378 19.6791 13.5378Z" fill="#7EBAFB"/>
<path d="M9.78374 12.5808C11.086 12.5808 12.1417 11.4246 12.1417 9.99842C12.1417 8.5722 11.086 7.41602 9.78374 7.41602C8.48148 7.41602 7.42578 8.5722 7.42578 9.99842C7.42578 11.4246 8.48148 12.5808 9.78374 12.5808Z" fill="#9F9F9F"/>
<path d="M9.41115 10.9788C9.41115 10.9788 9.27685 11.942 10.0956 13.2338C10.9146 14.5259 12.7668 17.003 14.5411 18.4548C14.5411 18.4548 14.9829 18.7808 15.4771 18.5403C15.9157 18.3268 15.687 17.7186 15.4771 17.3018C15.2624 16.8754 11.527 10.1696 10.7529 9.99878L9.41115 10.9788Z" fill="#7EBAFB"/>
<path d="M10.822 9.72087C10.822 9.72087 11.6397 9.33702 12.2086 7.89274C12.7775 6.4487 13.719 3.41745 13.9071 1.00046C13.9071 1.00046 13.9263 0.417468 13.4787 0.0851683C13.0814 -0.209992 12.7309 0.324133 12.5185 0.739507C12.3014 1.16441 9.07648 8.18081 9.35312 8.99103L10.822 9.72087Z" fill="#7EBAFB"/>
<path d="M9.11535 9.11297C9.11535 9.11297 8.45742 8.45716 7.02154 8.48917C5.58588 8.52094 2.67686 8.83955 0.590419 9.65417C0.590419 9.65417 0.0980332 9.87677 0.00745409 10.4605C-0.0730855 10.9787 0.516129 11.1068 0.949391 11.1461C1.39247 11.1864 8.5596 11.4911 9.11802 10.8795L9.11535 9.11297Z" fill="#7EBAFB"/>
<path d="M10.8446 9.9985C10.8446 10.6401 10.3696 11.1606 9.7835 11.1606C9.19764 11.1606 8.72266 10.6404 8.72266 9.9985C8.72266 9.35662 9.19764 8.83667 9.7835 8.83667C10.3696 8.83667 10.8446 9.35687 10.8446 9.9985Z" fill="#7EBAFB"/>
<path d="M10.534 9.99847C10.534 10.4522 10.1983 10.8202 9.78374 10.8202C9.36944 10.8202 9.03345 10.4524 9.03345 9.99847C9.03345 9.54473 9.36922 9.17676 9.78374 9.17676C10.198 9.177 10.534 9.54473 10.534 9.99847Z" stroke="#9F9F9F" stroke-width="0.574" stroke-miterlimit="10"/>
<path d="M29.3149 16.5233L37.2218 12.3048L36.169 8.88818C36.169 8.88818 35.1059 9.89192 28.306 12.3048L29.3149 16.5233Z" fill="#E4E4E4"/>
<path d="M27.4924 12.3047H28.3061C28.4926 12.3047 28.6615 12.4259 28.7358 12.6135L29.8332 15.3833C29.91 15.5771 29.8792 15.8019 29.7536 15.9624L27.5533 18.7752L27.4924 12.3047Z" fill="#9F9F9F"/>
<path d="M29.2421 15.8442C29.3955 15.8442 29.5199 15.708 29.5199 15.54C29.5199 15.372 29.3955 15.2358 29.2421 15.2358C29.0887 15.2358 28.9644 15.372 28.9644 15.54C28.9644 15.708 29.0887 15.8442 29.2421 15.8442Z" fill="#7EBAFB"/>
<path d="M28.321 13.5378C28.4744 13.5378 28.5987 13.4016 28.5987 13.2336C28.5987 13.0656 28.4744 12.9294 28.321 12.9294C28.1676 12.9294 28.0432 13.0656 28.0432 13.2336C28.0432 13.4016 28.1676 13.5378 28.321 13.5378Z" fill="#7EBAFB"/>
<path d="M38.2162 12.5808C39.5185 12.5808 40.5742 11.4246 40.5742 9.99842C40.5742 8.5722 39.5185 7.41602 38.2162 7.41602C36.914 7.41602 35.8583 8.5722 35.8583 9.99842C35.8583 11.4246 36.914 12.5808 38.2162 12.5808Z" fill="#9F9F9F"/>
<path d="M38.5888 10.9788C38.5888 10.9788 38.7231 11.942 37.9044 13.2338C37.0854 14.5259 35.2332 17.003 33.4588 18.4548C33.4588 18.4548 33.0171 18.7808 32.5229 18.5403C32.0843 18.3268 32.313 17.7186 32.5229 17.3018C32.7376 16.8754 36.4729 10.1696 37.2471 9.99878L38.5888 10.9788Z" fill="#7EBAFB"/>
<path d="M37.1782 9.72087C37.1782 9.72087 36.3605 9.33702 35.7919 7.89274C35.2229 6.4487 34.2815 3.41745 34.0934 1.00046C34.0934 1.00046 34.0742 0.417468 34.5217 0.0851683C34.9191 -0.209992 35.2696 0.324133 35.482 0.739507C35.699 1.16441 38.924 8.18081 38.6473 8.99103L37.1782 9.72087Z" fill="#7EBAFB"/>
<path d="M38.8846 9.11297C38.8846 9.11297 39.5426 8.45716 40.9784 8.48917C42.4141 8.52094 45.3231 8.83955 47.4096 9.65417C47.4096 9.65417 47.9019 9.87677 47.9925 10.4605C48.0731 10.9787 47.4839 11.1068 47.0506 11.1461C46.6075 11.1864 39.4404 11.4911 38.882 10.8795L38.8846 9.11297Z" fill="#7EBAFB"/>
<path d="M38.2162 11.1603C38.8021 11.1603 39.2771 10.6402 39.2771 9.9985C39.2771 9.35684 38.8021 8.83667 38.2162 8.83667C37.6303 8.83667 37.1554 9.35684 37.1554 9.9985C37.1554 10.6402 37.6303 11.1603 38.2162 11.1603Z" fill="#7EBAFB"/>
<path d="M37.4662 9.99847C37.4662 10.4522 37.802 10.8202 38.2165 10.8202C38.6308 10.8202 38.9668 10.4524 38.9668 9.99847C38.9668 9.54473 38.6308 9.17676 38.2165 9.17676C37.802 9.177 37.4662 9.54473 37.4662 9.99847Z" stroke="#9F9F9F" stroke-width="0.574" stroke-miterlimit="10"/>
<path d="M21.5802 35.0379L22.6915 33.5606H25.2263L26.397 35.0601L25.1483 31.3396H22.6526L21.5802 35.0379Z" fill="#7EBAFB"/>
<path d="M24.862 31.3396H23.124V34.4146H24.862V31.3396Z" fill="#7EBAFB"/>
<path d="M25.1873 34.4146H22.8086V35.0601H25.1873V34.4146Z" fill="#7EBAFB"/>
<path d="M26.397 35.0602C26.4722 35.2841 26.7066 35.4023 26.9039 35.3012C27.2222 35.1377 27.4442 34.7829 27.4442 34.3739L27.6782 9.51377C27.6782 8.95106 27.2579 8.49072 26.7441 8.49072H21.242C20.7282 8.49072 20.3079 8.95106 20.3079 9.51377L20.5419 34.3739C20.5419 34.7775 20.7583 35.1287 21.0702 35.2948C21.2714 35.4018 21.5126 35.2714 21.5802 35.0378L22.6524 31.3397H25.1483L26.397 35.0602Z" fill="#E4E4E4"/>
<path d="M26.3553 24.2501H21.6306C21.3696 24.2501 21.1559 24.0161 21.1559 23.7302V9.45916C21.1559 9.17328 21.3696 8.93921 21.6306 8.93921H26.3553C26.6163 8.93921 26.83 9.17304 26.83 9.45916V23.7302C26.83 24.0161 26.6165 24.2501 26.3553 24.2501Z" stroke="#7EBAFB" stroke-width="0.7866" stroke-miterlimit="10" stroke-linecap="round" stroke-linejoin="round"/>
</svg>
